<svg id="Layer_1" data-name="Layer 1" xmlns="http://www.w3.org/2000/svg" viewBox="0 0 200 200"><defs><style>.cls-1{fill:#1d1d1b;}</style></defs><title>0</title><path class="cls-1" d="M100.8,155.5A56.3,56.3,0,1,1,157,99.2,56.3,56.3,0,0,1,100.8,155.5Zm0-105a48.8,48.8,0,1,0,48.7,48.7A48.8,48.8,0,0,0,100.8,50.5Z"/><path class="cls-1" d="M190.8,103H172a3.8,3.8,0,1,1,0-7.5h18.8a3.8,3.8,0,0,1,0,7.5Z"/><path class="cls-1" d="M29.5,103H10.8a3.8,3.8,0,1,1,0-7.5H29.5a3.8,3.8,0,0,1,0,7.5Z"/><path class="cls-1" d="M100.8,31.8A3.8,3.8,0,0,1,97,28V9.2a3.8,3.8,0,0,1,7.5,0V28A3.8,3.8,0,0,1,100.8,31.8Z"/><path class="cls-1" d="M100.8,193a3.8,3.8,0,0,1-3.8-3.8V170.5a3.8,3.8,0,0,1,7.5,0v18.7A3.8,3.8,0,0,1,100.8,193Z"/><path class="cls-1" d="M162.5,67.4a3.9,3.9,0,0,1-3.3-1.9,3.7,3.7,0,0,1,1.4-5.1L176.8,51a3.7,3.7,0,0,1,5.1,1.4,3.6,3.6,0,0,1-1.3,5.1l-16.3,9.4A4.1,4.1,0,0,1,162.5,67.4Z"/><path class="cls-1" d="M22.8,148a3.7,3.7,0,0,1-3.2-1.9,3.6,3.6,0,0,1,1.3-5.1l16.3-9.4a3.7,3.7,0,0,1,3.7,6.5l-16.2,9.4A4.5,4.5,0,0,1,22.8,148Z"/><path class="cls-1" d="M65.1,41.3a3.7,3.7,0,0,1-3.2-1.9L52.5,23.2a3.7,3.7,0,0,1,1.4-5.1A3.6,3.6,0,0,1,59,19.4l9.4,16.3A3.7,3.7,0,0,1,67,40.8,4.1,4.1,0,0,1,65.1,41.3Z"/><path class="cls-1" d="M145.8,180.9a3.8,3.8,0,0,1-3.3-1.8l-9.4-16.3a3.7,3.7,0,0,1,6.5-3.7l9.4,16.2a3.7,3.7,0,0,1-1.4,5.1A3.1,3.1,0,0,1,145.8,180.9Z"/><path class="cls-1" d="M136.4,41.3a4.1,4.1,0,0,1-1.9-.5,3.7,3.7,0,0,1-1.4-5.1l9.4-16.3a3.6,3.6,0,0,1,5.1-1.3,3.7,3.7,0,0,1,1.4,5.1l-9.4,16.2A3.7,3.7,0,0,1,136.4,41.3Z"/><path class="cls-1" d="M55.7,180.9a3.1,3.1,0,0,1-1.8-.5,3.7,3.7,0,0,1-1.4-5.1l9.4-16.2a3.7,3.7,0,1,1,6.5,3.7L59,179.1A3.8,3.8,0,0,1,55.7,180.9Z"/><path class="cls-1" d="M39,67.4a4.1,4.1,0,0,1-1.8-.5L20.9,57.5a3.6,3.6,0,0,1-1.3-5.1A3.7,3.7,0,0,1,24.7,51l16.2,9.4a3.7,3.7,0,0,1,1.4,5.1A3.9,3.9,0,0,1,39,67.4Z"/><path class="cls-1" d="M178.7,148a4.5,4.5,0,0,1-1.9-.5l-16.2-9.4a3.7,3.7,0,1,1,3.7-6.5l16.3,9.4a3.6,3.6,0,0,1,1.3,5.1A3.7,3.7,0,0,1,178.7,148Z"/></svg>