<svg id="Layer_1" data-name="Layer 1" xmlns="http://www.w3.org/2000/svg" viewBox="0 0 200 200"><defs><style>.cls-1{fill:#1d1d1b;}</style></defs><title>0</title><path class="cls-1" d="M105.4,188.8a90.7,90.7,0,0,1-80.5-49.5A90.4,90.4,0,0,1,125,9.9a3.8,3.8,0,0,1,3,3.7,3.9,3.9,0,0,1-2.9,3.7,64.3,64.3,0,0,0-46,42.8c-11,34.1,7.6,70.8,41.5,81.8a64.3,64.3,0,0,0,61.7-12.1,3.8,3.8,0,0,1,5.9,4.4,90.6,90.6,0,0,1-41.9,44.7A89.4,89.4,0,0,1,105.4,188.8Zm0-173.5a84,84,0,0,0-37.7,9A83.2,83.2,0,0,0,31.6,135.9a82.6,82.6,0,0,0,111.3,36.3,83.6,83.6,0,0,0,31.2-27.8,71.7,71.7,0,0,1-55.8,4.7h0A72.6,72.6,0,0,1,71.9,57.8a71.6,71.6,0,0,1,36.6-42.4Z"/></svg>