<svg id="Layer_1" data-name="Layer 1" xmlns="http://www.w3.org/2000/svg" viewBox="0 0 200 200"><defs><style>.cls-1{fill:#1d1d1b;}</style></defs><title>0</title><path class="cls-1" d="M180.8,99.3H161.7a3.9,3.9,0,0,1-3.8-3.9,3.8,3.8,0,0,1,3.8-3.8h19.1a3.8,3.8,0,0,1,3.8,3.8A3.9,3.9,0,0,1,180.8,99.3Z"/><path class="cls-1" d="M32.2,99.3H13.1a3.9,3.9,0,0,1-3.8-3.9,3.8,3.8,0,0,1,3.8-3.8H32.2A3.8,3.8,0,0,1,36,95.4,3.9,3.9,0,0,1,32.2,99.3Z"/><path class="cls-1" d="M96.9,34.5a3.8,3.8,0,0,1-3.8-3.8V11.6a3.8,3.8,0,0,1,3.8-3.8,3.9,3.9,0,0,1,3.9,3.8V30.7A3.9,3.9,0,0,1,96.9,34.5Z"/><path class="cls-1" d="M153,66.9a3.9,3.9,0,0,1-3.3-1.9,4,4,0,0,1,1.4-5.3l16.5-9.5a3.8,3.8,0,0,1,5.2,1.4,3.7,3.7,0,0,1-1.3,5.2l-16.6,9.5A3.1,3.1,0,0,1,153,66.9Z"/><path class="cls-1" d="M24.3,141.2a3.8,3.8,0,0,1-1.9-7.1l16.5-9.6a3.9,3.9,0,0,1,5.2,1.4,3.7,3.7,0,0,1-1.4,5.2l-16.5,9.6A4.1,4.1,0,0,1,24.3,141.2Z"/><path class="cls-1" d="M64.6,43.1a3.8,3.8,0,0,1-3.4-1.9L51.7,24.7a3.8,3.8,0,1,1,6.6-3.8l9.5,16.5a3.7,3.7,0,0,1-1.3,5.2A3.4,3.4,0,0,1,64.6,43.1Z"/><path class="cls-1" d="M129.3,43.1a3.4,3.4,0,0,1-1.9-.5,3.8,3.8,0,0,1-1.4-5.2l9.6-16.5a3.8,3.8,0,0,1,5.2-1.4,3.9,3.9,0,0,1,1.4,5.2l-9.6,16.5A3.7,3.7,0,0,1,129.3,43.1Z"/><path class="cls-1" d="M55,171.9a3.5,3.5,0,0,1-1.9-.6,3.8,3.8,0,0,1-1.4-5.2l9.5-16.5a4,4,0,0,1,5.3-1.4,3.8,3.8,0,0,1,1.3,5.2l-9.5,16.5A3.8,3.8,0,0,1,55,171.9Z"/><path class="cls-1" d="M40.8,66.9a3.5,3.5,0,0,1-1.9-.6L22.4,56.8a3.8,3.8,0,0,1,3.8-6.6l16.5,9.5A3.8,3.8,0,0,1,44.1,65,3.9,3.9,0,0,1,40.8,66.9Z"/><path class="cls-1" d="M94.9,141.4a32.3,32.3,0,0,1,2.2-4.1h-.2a42.2,42.2,0,1,1,38.2-24.7,37.1,37.1,0,0,1,8.9-1.9,48.7,48.7,0,0,0,2.5-15.4,49.6,49.6,0,1,0-59.8,48.5A28.9,28.9,0,0,1,94.9,141.4Z"/><path class="cls-1" d="M169.3,190.7H98.8a21,21,0,0,1,0-41.9h2a17.3,17.3,0,0,1,17.1-15.4,14.7,14.7,0,0,1,4.2.6A26.7,26.7,0,0,1,173.2,145v.3a22.9,22.9,0,0,1-3.9,45.4ZM98.8,156.4a13.4,13.4,0,0,0,0,26.7h70.5a15.3,15.3,0,0,0,.2-30.5H169a3.6,3.6,0,0,1-2.9-1.3,3.9,3.9,0,0,1-.9-3.1,19,19,0,0,0-37.1-8.1,3.7,3.7,0,0,1-2.2,2.5,3.7,3.7,0,0,1-3.4-.2,9.6,9.6,0,0,0-4.6-1.2,9.4,9.4,0,0,0-9.5,9.5,8.9,8.9,0,0,0,.3,2.2,3.9,3.9,0,0,1-1.2,3.7,3.7,3.7,0,0,1-3.9.7A13.6,13.6,0,0,0,98.8,156.4Z"/></svg>