<svg id="Layer_1" data-name="Layer 1" xmlns="http://www.w3.org/2000/svg" viewBox="0 0 200 200"><defs><style>.cls-1{fill:#1d1d1b;}</style></defs><title>0</title><path class="cls-1" d="M190.4,114.1a3.8,3.8,0,0,0-4.7.2,55.8,55.8,0,1,1-49.3-97,3.8,3.8,0,0,0-.1-7.4A79.1,79.1,0,0,0,48.6,123.2l1.2,2.2a34.1,34.1,0,0,1,5.3-6.1A71.8,71.8,0,0,1,86.6,23.4a71.1,71.1,0,0,1,32.5-7.8h.7A62.8,62.8,0,0,0,89.5,51.9,63.8,63.8,0,0,0,130.2,132a62.9,62.9,0,0,0,47.1-3.3,71,71,0,0,1-47.7,29.4,31.2,31.2,0,0,1,1.5,7.5,79.8,79.8,0,0,0,60.5-46.9A3.9,3.9,0,0,0,190.4,114.1Z"/><path class="cls-1" d="M100.7,190.3H30.5a20.9,20.9,0,0,1,0-41.8h2a17.1,17.1,0,0,1,17-15.3,15.2,15.2,0,0,1,4.2.6,26.6,26.6,0,0,1,50.8,10.8v.4a22.8,22.8,0,0,1-3.8,45.2ZM30.5,156.1a13.3,13.3,0,0,0,0,26.6h70.2a15.2,15.2,0,0,0,.2-30.4h-.5a3.9,3.9,0,0,1-2.9-1.3,4,4,0,0,1-.8-3.2,18.2,18.2,0,0,0,.3-3.2,19,19,0,0,0-37.4-4.8,3.9,3.9,0,0,1-2.2,2.5,3.5,3.5,0,0,1-3.3-.2,10,10,0,0,0-4.6-1.3,9.5,9.5,0,0,0-9.5,9.5,8.9,8.9,0,0,0,.3,2.2,4.1,4.1,0,0,1-1.2,3.8,4,4,0,0,1-3.9.7A11.7,11.7,0,0,0,30.5,156.1Zm69.9-7.5Z"/></svg>