<svg id="Layer_1" data-name="Layer 1" xmlns="http://www.w3.org/2000/svg" viewBox="0 0 200 200"><defs><style>.cls-1{fill:#1d1d1b;}</style></defs><title>0</title><path class="cls-1" d="M157,159.2H37a30,30,0,0,1,0-60h.3a24.3,24.3,0,0,1-.3-3.8A26.3,26.3,0,0,1,63.2,69.2a26.8,26.8,0,0,1,12.2,3A41.2,41.2,0,0,1,157,80.5c0,1.2-.1,2.5-.2,3.8h.2a37.5,37.5,0,1,1,0,75ZM37,106.8a22.5,22.5,0,1,0,0,45H157a30,30,0,0,0,0-60,20.8,20.8,0,0,0-4.1.3,3.8,3.8,0,0,1-3.2-1.2,3.7,3.7,0,0,1-1-3.3,35.1,35.1,0,0,0,.8-7.1A33.7,33.7,0,0,0,82.1,79a3.9,3.9,0,0,1-2.3,3.3,3.7,3.7,0,0,1-4-.7A18.8,18.8,0,0,0,44.5,95.5a17.4,17.4,0,0,0,1.3,6.7,4,4,0,0,1-.7,3.8,3.8,3.8,0,0,1-3.6,1.2A22.8,22.8,0,0,0,37,106.8Z"/></svg>