<svg id="Layer_1" data-name="Layer 1" xmlns="http://www.w3.org/2000/svg" viewBox="0 0 200 200"><defs><style>.cls-1{fill:#1d1d1b;}</style></defs><title>0</title><path class="cls-1" d="M41.4,138.9a30.6,30.6,0,0,1,3.7-7.2H39.5a21.6,21.6,0,0,1,0-43.2,21.2,21.2,0,0,1,4.4.4,3.4,3.4,0,0,0,3.4-1.2,3.7,3.7,0,0,0,.7-3.6,18.3,18.3,0,0,1-1.3-6.4,18,18,0,0,1,18.1-18,17.8,17.8,0,0,1,12,4.6,3.5,3.5,0,0,0,3.8.7,3.6,3.6,0,0,0,2.2-3.2,32.4,32.4,0,0,1,64.8,1.5,30.7,30.7,0,0,1-.8,6.7,3.6,3.6,0,0,0,.9,3.2,3.7,3.7,0,0,0,3.1,1.2,19.4,19.4,0,0,1,4-.3,28.8,28.8,0,0,1,25.9,41.2,36,36,0,0,1,5.8,4.5,35.9,35.9,0,0,0-31.7-52.9h-.2c.1-1.3.2-2.5.2-3.6a39.6,39.6,0,0,0-78.4-8,24.8,24.8,0,0,0-11.6-2.8A25.3,25.3,0,0,0,39.5,77.7a21.9,21.9,0,0,0,.3,3.6h-.3a28.8,28.8,0,0,0,0,57.6Z"/><path class="cls-1" d="M162,174.9H72a25.2,25.2,0,1,1,.2-50.4A21.7,21.7,0,0,1,102,108.2a32.5,32.5,0,0,1,63.6,9.1v.2a28.8,28.8,0,0,1-3.6,57.4ZM72,131.7a18,18,0,1,0,0,36h90a21.6,21.6,0,0,0,0-43.2h-.3a3.7,3.7,0,0,1-2.7-1.3,3.5,3.5,0,0,1-.9-2.8,16.3,16.3,0,0,0,.3-3.1,25.2,25.2,0,0,0-50.3-3,3.5,3.5,0,0,1-2.2,2.9,3.7,3.7,0,0,1-3.6-.5,14.2,14.2,0,0,0-8.8-3,14.4,14.4,0,0,0-14.4,14.2,1.1,1.1,0,0,1,.1.5,3.7,3.7,0,0,1-1.3,2.7,3.4,3.4,0,0,1-2.9.8A16.2,16.2,0,0,0,72,131.7Z"/></svg>