<svg id="Layer_1" data-name="Layer 1" xmlns="http://www.w3.org/2000/svg" viewBox="0 0 200 200"><defs><style>.cls-1{fill:#1d1d1b;}</style></defs><title>0</title><path class="cls-1" d="M157,125.5H37a30,30,0,0,1,0-60h.3a23.1,23.1,0,0,1-.3-3.7A26.3,26.3,0,0,1,63.2,35.5a25.6,25.6,0,0,1,12.2,3A41.2,41.2,0,0,1,157,46.8c0,1.2-.1,2.4-.2,3.7h.2a37.5,37.5,0,0,1,0,75ZM37,73a22.5,22.5,0,0,0,0,45H157a30,30,0,0,0,0-60l-4.1.3a3.5,3.5,0,0,1-3.2-1.2,3.6,3.6,0,0,1-1-3.3,33.4,33.4,0,0,0,.8-7,33.7,33.7,0,0,0-67.4-1.5,3.7,3.7,0,0,1-2.3,3.2,3.9,3.9,0,0,1-4-.6A18.3,18.3,0,0,0,63.2,43,18.8,18.8,0,0,0,44.5,61.8a16.9,16.9,0,0,0,1.3,6.6,4,4,0,0,1-.7,3.8,4.1,4.1,0,0,1-3.6,1.3A23,23,0,0,0,37,73Z"/><path class="cls-1" d="M108.2,193a3.2,3.2,0,0,1-1.6-.4,3.7,3.7,0,0,1-1.7-5l11.2-22.5a3.8,3.8,0,0,1,6.8,3.3l-11.3,22.5A3.9,3.9,0,0,1,108.2,193Z"/><path class="cls-1" d="M138.2,163a3.2,3.2,0,0,1-1.6-.4,3.7,3.7,0,0,1-1.7-5l11.2-22.5a3.8,3.8,0,0,1,6.8,3.3l-11.3,22.5A3.9,3.9,0,0,1,138.2,163Z"/><path class="cls-1" d="M74.5,193a3.5,3.5,0,0,1-1.7-.4,3.8,3.8,0,0,1-1.7-5l11.3-22.5a3.7,3.7,0,1,1,6.7,3.3L77.9,190.9A3.9,3.9,0,0,1,74.5,193Z"/><path class="cls-1" d="M104.5,163a3.5,3.5,0,0,1-1.7-.4,3.8,3.8,0,0,1-1.7-5l11.3-22.5a3.7,3.7,0,1,1,6.7,3.3l-11.2,22.5A3.9,3.9,0,0,1,104.5,163Z"/><path class="cls-1" d="M40.7,193a3.2,3.2,0,0,1-1.6-.4,3.7,3.7,0,0,1-1.7-5l11.2-22.5a3.8,3.8,0,0,1,6.8,3.3L44.1,190.9A3.9,3.9,0,0,1,40.7,193Z"/><path class="cls-1" d="M70.7,163a3.2,3.2,0,0,1-1.6-.4,3.7,3.7,0,0,1-1.7-5l11.2-22.5a3.8,3.8,0,0,1,6.8,3.3L74.1,160.9A3.9,3.9,0,0,1,70.7,163Z"/><path class="cls-1" d="M37,163a3.5,3.5,0,0,1-1.7-.4,3.8,3.8,0,0,1-1.7-5l11.3-22.5a3.7,3.7,0,1,1,6.7,3.3L40.4,160.9A3.9,3.9,0,0,1,37,163Z"/></svg>