<svg id="Layer_1" data-name="Layer 1" xmlns="http://www.w3.org/2000/svg" viewBox="0 0 200 200"><defs><style>.cls-1{fill:#1d1d1b;}</style></defs><title>0</title><path class="cls-1" d="M22.5,77.4H11.4a3.6,3.6,0,0,1-3.6-3.7A3.7,3.7,0,0,1,11.4,70H22.5a3.7,3.7,0,0,1,3.7,3.7A3.6,3.6,0,0,1,22.5,77.4Z"/><path class="cls-1" d="M74.3,25.6a3.7,3.7,0,0,1-3.7-3.7V10.8a3.8,3.8,0,0,1,3.7-3.7A3.7,3.7,0,0,1,78,10.8V21.9A3.6,3.6,0,0,1,74.3,25.6Z"/><path class="cls-1" d="M19.9,108.9A3.7,3.7,0,0,1,18,102l9.6-5.6a3.7,3.7,0,0,1,5.1,1.4,3.7,3.7,0,0,1-1.4,5l-9.6,5.6A4.1,4.1,0,0,1,19.9,108.9Z"/><path class="cls-1" d="M119.2,51.5a3.6,3.6,0,0,1-3.2-1.8,3.7,3.7,0,0,1,1.4-5.1l9.6-5.5a3.7,3.7,0,0,1,5,1.3,3.8,3.8,0,0,1-1.3,5.1L121.1,51A3.4,3.4,0,0,1,119.2,51.5Z"/><path class="cls-1" d="M48.5,32.6a3.9,3.9,0,0,1-3.3-1.9l-5.5-9.6a3.7,3.7,0,0,1,1.3-5,3.6,3.6,0,0,1,5.1,1.3L51.7,27a3.7,3.7,0,0,1-1.4,5.1A4.1,4.1,0,0,1,48.5,32.6Z"/><path class="cls-1" d="M100.2,32.6a4.1,4.1,0,0,1-1.8-.5A3.7,3.7,0,0,1,97,27l5.6-9.6a3.5,3.5,0,0,1,5-1.3,3.6,3.6,0,0,1,1.4,5l-5.6,9.6A3.6,3.6,0,0,1,100.2,32.6Z"/><path class="cls-1" d="M29.5,51.5a3.4,3.4,0,0,1-1.9-.5L18,45.5a3.8,3.8,0,0,1-1.3-5.1,3.7,3.7,0,0,1,5-1.3l9.6,5.5a3.7,3.7,0,0,1,1.4,5.1A3.6,3.6,0,0,1,29.5,51.5Z"/><path class="cls-1" d="M163.1,155.1H70.6a25.9,25.9,0,1,1,0-51.8H71A22.1,22.1,0,0,1,92.8,84.8a20.5,20.5,0,0,1,8.8,1.9,33.2,33.2,0,0,1,65.2,9.2v.3a29.6,29.6,0,0,1-3.7,58.9ZM70.6,110.7a18.5,18.5,0,0,0,0,37h92.5a22.2,22.2,0,0,0,.1-44.4h-.3a3.6,3.6,0,0,1-2.8-1.2,3.9,3.9,0,0,1-.9-2.9,20,20,0,0,0,.2-3.3,25.9,25.9,0,0,0-51.6-3,3.6,3.6,0,0,1-2.2,3,3.8,3.8,0,0,1-3.7-.5,14.6,14.6,0,0,0-9.1-3.2A14.9,14.9,0,0,0,78,106.8a.9.9,0,0,1,.1.5,3.9,3.9,0,0,1-1.3,2.9,3.7,3.7,0,0,1-3,.8Zm92.3-11.1Z"/><path class="cls-1" d="M133.5,192.1a3.2,3.2,0,0,1-1.6-.4,3.7,3.7,0,0,1-1.7-4.9l11.1-22.2a3.7,3.7,0,0,1,5-1.7,3.8,3.8,0,0,1,1.7,5l-11.1,22.2A3.8,3.8,0,0,1,133.5,192.1Z"/><path class="cls-1" d="M100.2,192.1a3.2,3.2,0,0,1-1.6-.4,3.7,3.7,0,0,1-1.7-4.9L108,164.6a3.7,3.7,0,0,1,5-1.7,3.8,3.8,0,0,1,1.7,5l-11.1,22.2A3.8,3.8,0,0,1,100.2,192.1Z"/><path class="cls-1" d="M66.9,192.1a3.2,3.2,0,0,1-1.6-.4,3.7,3.7,0,0,1-1.7-4.9l11.1-22.2a3.7,3.7,0,0,1,5-1.7,3.8,3.8,0,0,1,1.7,5L70.3,190.1A3.8,3.8,0,0,1,66.9,192.1Z"/><path class="cls-1" d="M48.1,104.8a26.7,26.7,0,0,1,6.1-4.5,33.3,33.3,0,1,1,52.4-34.8,46.9,46.9,0,0,1,6.3-4.7,40.7,40.7,0,1,0-64.8,44Z"/></svg>