<svg id="Layer_1" data-name="Layer 1" xmlns="http://www.w3.org/2000/svg" viewBox="0 0 200 200"><defs><style>.cls-1{fill:#1d1d1b;}</style></defs><title>0</title><path class="cls-1" d="M191.6,70a3.8,3.8,0,0,0-4.6.1A30.9,30.9,0,0,1,157.1,76a31.5,31.5,0,0,1,2.2-60.5,3.7,3.7,0,0,0-.1-7.2,47.5,47.5,0,0,0-32.3,4.1,48,48,0,0,0-26.2,43,37.2,37.2,0,0,1,7.4,1.4A40.6,40.6,0,0,1,130.2,19a38.5,38.5,0,0,1,13.4-4.1A38.5,38.5,0,0,0,129.9,34a38.8,38.8,0,0,0,48.5,49.2,40.1,40.1,0,0,1-11.2,8.4,39.6,39.6,0,0,1-18.3,4.5,37.6,37.6,0,0,1,6.9,6.9,48.8,48.8,0,0,0,14.7-4.8,47.8,47.8,0,0,0,22.3-23.8A3.6,3.6,0,0,0,191.6,70Z"/><path class="cls-1" d="M126.5,155.1H34a25.9,25.9,0,1,1,.3-51.8A22.2,22.2,0,0,1,56.2,84.8a21.2,21.2,0,0,1,8.7,1.8,33.3,33.3,0,0,1,65.3,9.3v.2a29.6,29.6,0,0,1-3.7,59ZM34,110.7a18.5,18.5,0,0,0,0,37h92.5a22.2,22.2,0,0,0,.1-44.4h-.3a3.6,3.6,0,0,1-2.8-1.2,3.9,3.9,0,0,1-.9-2.9,20,20,0,0,0,.2-3.3,25.9,25.9,0,0,0-51.6-3,3.6,3.6,0,0,1-2.2,3,3.7,3.7,0,0,1-3.7-.5,14.6,14.6,0,0,0-9.1-3.2,14.9,14.9,0,0,0-14.8,14.6c0,.2.1.3.1.5a4.1,4.1,0,0,1-1.3,2.9,3.9,3.9,0,0,1-3.1.8Z"/><path class="cls-1" d="M96.9,192.1a3.2,3.2,0,0,1-1.6-.4,3.6,3.6,0,0,1-1.7-4.9l11.1-22.2a3.7,3.7,0,1,1,6.6,3.3l-11.1,22.2A3.5,3.5,0,0,1,96.9,192.1Z"/><path class="cls-1" d="M63.6,192.1a3.2,3.2,0,0,1-1.6-.4,3.6,3.6,0,0,1-1.7-4.9l11.1-22.2a3.7,3.7,0,1,1,6.6,3.3L66.9,190.1A3.5,3.5,0,0,1,63.6,192.1Z"/><path class="cls-1" d="M30.3,192.1a3.2,3.2,0,0,1-1.6-.4,3.6,3.6,0,0,1-1.7-4.9l11.1-22.2a3.7,3.7,0,1,1,6.6,3.3L33.6,190.1A3.5,3.5,0,0,1,30.3,192.1Z"/></svg>