<svg id="Layer_1" data-name="Layer 1" xmlns="http://www.w3.org/2000/svg" viewBox="0 0 200 200"><defs><style>.cls-1{fill:#1d1d1b;}</style></defs><title>0</title><path class="cls-1" d="M115.7,193.8a4.7,4.7,0,0,1-1.6-.4,3.8,3.8,0,0,1-1.7-5.1l11.2-22.5a3.8,3.8,0,1,1,6.8,3.4l-11.3,22.5A3.9,3.9,0,0,1,115.7,193.8Z"/><path class="cls-1" d="M145.7,163.8a4.7,4.7,0,0,1-1.6-.4,3.8,3.8,0,0,1-1.7-5.1l11.2-22.5a3.8,3.8,0,1,1,6.8,3.4l-11.3,22.5A3.9,3.9,0,0,1,145.7,163.8Z"/><path class="cls-1" d="M82,193.8a5.3,5.3,0,0,1-1.7-.4,3.9,3.9,0,0,1-1.7-5.1l11.3-22.5a3.8,3.8,0,1,1,6.7,3.4L85.4,191.7A3.9,3.9,0,0,1,82,193.8Z"/><path class="cls-1" d="M112,163.8a5.3,5.3,0,0,1-1.7-.4,3.9,3.9,0,0,1-1.7-5.1l11.3-22.5a3.8,3.8,0,1,1,6.7,3.4l-11.2,22.5A3.9,3.9,0,0,1,112,163.8Z"/><path class="cls-1" d="M157,51.2h-.2c.1-1.3.2-2.6.2-3.8a41.2,41.2,0,0,0-81.6-8.3,26.8,26.8,0,0,0-12.2-3A26.3,26.3,0,0,0,37,62.5a24.3,24.3,0,0,0,.3,3.8H37a30,30,0,0,0-.2,60l4.8-7.5H37a22.5,22.5,0,0,1,0-45,23,23,0,0,1,4.5.5A3.8,3.8,0,0,0,45.1,73a4,4,0,0,0,.7-3.8,17.4,17.4,0,0,1-1.3-6.7A18.7,18.7,0,0,1,75.8,48.6a3.7,3.7,0,0,0,4,.7A3.9,3.9,0,0,0,82.1,46a33.7,33.7,0,0,1,67.4,1.5,35.1,35.1,0,0,1-.8,7.1,3.7,3.7,0,0,0,1,3.3,3.8,3.8,0,0,0,3.2,1.2,21.7,21.7,0,0,1,4.1-.4,30,30,0,0,1,0,60H100.2l-6,7.5H157a37.5,37.5,0,0,0,0-75Z"/><path class="cls-1" d="M40.8,193.7a3.8,3.8,0,0,1-2.5-.9,3.7,3.7,0,0,1-.8-4.7l19.1-31.9H33.2a3.6,3.6,0,0,1-3.2-1.9,3.7,3.7,0,0,1,.1-3.8L63.8,98A3.8,3.8,0,0,1,67,96.2h33.8a3.7,3.7,0,0,1,3.3,2.2,3.5,3.5,0,0,1-.4,3.9L78.6,133.7h25.9a3.7,3.7,0,0,1,3.5,2.5,3.7,3.7,0,0,1-1.1,4.2L43.1,192.9A3.4,3.4,0,0,1,40.8,193.7Zm-.7-45H63.2a3.8,3.8,0,0,1,3.3,2,3.5,3.5,0,0,1,0,3.7L55.2,173.3,94,141.2H70.8a3.7,3.7,0,0,1-3.4-2.1,3.5,3.5,0,0,1,.4-3.9l25.1-31.5H69Z"/></svg>