<svg id="Layer_1" data-name="Layer 1" xmlns="http://www.w3.org/2000/svg" viewBox="0 0 200 200"><defs><style>.cls-1{fill:#1d1d1b;}</style></defs><title>0</title><path class="cls-1" d="M157,126.2H37a30,30,0,1,1,.3-59.9,24.3,24.3,0,0,1-.3-3.8A26.3,26.3,0,0,1,63.2,36.2a26.8,26.8,0,0,1,12.2,3A41.2,41.2,0,0,1,157,47.5c0,1.2-.1,2.5-.2,3.8h.2a37.5,37.5,0,1,1,0,75ZM37,73.8a22.5,22.5,0,1,0,0,45H157a30,30,0,0,0,0-60,20.8,20.8,0,0,0-4.1.3,3.8,3.8,0,0,1-3.2-1.2,3.7,3.7,0,0,1-1-3.3,35.1,35.1,0,0,0,.8-7.1A33.7,33.7,0,0,0,82.1,46a3.9,3.9,0,0,1-2.3,3.3,3.7,3.7,0,0,1-4-.7A18.8,18.8,0,0,0,44.5,62.5a17.4,17.4,0,0,0,1.3,6.7,4,4,0,0,1-.7,3.8,3.8,3.8,0,0,1-3.6,1.2A22.8,22.8,0,0,0,37,73.8Z"/><path class="cls-1" d="M157,167.5a3.8,3.8,0,0,1-3.8-3.7V137.5a3.8,3.8,0,0,1,7.6,0v26.3A3.8,3.8,0,0,1,157,167.5Z"/><path class="cls-1" d="M168.2,161.9a3.1,3.1,0,0,1-2-.7l-22.5-15a3.7,3.7,0,0,1-1.1-5.2,3.8,3.8,0,0,1,5.2-1l22.5,15a3.8,3.8,0,0,1,1.1,5.2A3.9,3.9,0,0,1,168.2,161.9Z"/><path class="cls-1" d="M145.8,161.9a3.9,3.9,0,0,1-3.2-1.7,3.8,3.8,0,0,1,1.1-5.2l22.5-15a3.8,3.8,0,0,1,5.2,1,3.7,3.7,0,0,1-1.1,5.2l-22.5,15A3.1,3.1,0,0,1,145.8,161.9Z"/><path class="cls-1" d="M37,167.5a3.8,3.8,0,0,1-3.8-3.7V137.5a3.8,3.8,0,0,1,7.6,0v26.3A3.8,3.8,0,0,1,37,167.5Z"/><path class="cls-1" d="M48.2,161.9a3.1,3.1,0,0,1-2-.7l-22.5-15a3.7,3.7,0,0,1-1.1-5.2,3.8,3.8,0,0,1,5.2-1l22.5,15a3.8,3.8,0,0,1,1.1,5.2A3.9,3.9,0,0,1,48.2,161.9Z"/><path class="cls-1" d="M25.8,161.9a3.9,3.9,0,0,1-3.2-1.7,3.8,3.8,0,0,1,1.1-5.2l22.5-15a3.8,3.8,0,0,1,5.2,1,3.7,3.7,0,0,1-1.1,5.2l-22.5,15A3.1,3.1,0,0,1,25.8,161.9Z"/><path class="cls-1" d="M67,193.8a3.8,3.8,0,0,1-3.8-3.8V163.8a3.8,3.8,0,0,1,7.6,0V190A3.8,3.8,0,0,1,67,193.8Z"/><path class="cls-1" d="M78.2,188.1a3.6,3.6,0,0,1-2-.6l-22.5-15a3.7,3.7,0,1,1,4.1-6.2l22.5,15a3.7,3.7,0,0,1,1.1,5.2A4,4,0,0,1,78.2,188.1Z"/><path class="cls-1" d="M55.8,188.1a4,4,0,0,1-3.2-1.6,3.7,3.7,0,0,1,1.1-5.2l22.5-15a3.7,3.7,0,1,1,4.1,6.2l-22.5,15A3.6,3.6,0,0,1,55.8,188.1Z"/><path class="cls-1" d="M127,193.8a3.8,3.8,0,0,1-3.8-3.8V163.8a3.8,3.8,0,1,1,7.6,0V190A3.8,3.8,0,0,1,127,193.8Z"/><path class="cls-1" d="M138.2,188.1a3.6,3.6,0,0,1-2-.6l-22.5-15a3.7,3.7,0,1,1,4.1-6.2l22.5,15a3.7,3.7,0,0,1,1.1,5.2A4,4,0,0,1,138.2,188.1Z"/><path class="cls-1" d="M115.8,188.1a4,4,0,0,1-3.2-1.6,3.7,3.7,0,0,1,1.1-5.2l22.5-15a3.7,3.7,0,1,1,4.1,6.2l-22.5,15A3.6,3.6,0,0,1,115.8,188.1Z"/><path class="cls-1" d="M97,167.5a3.8,3.8,0,0,1-3.8-3.7V137.5a3.8,3.8,0,0,1,7.6,0v26.3A3.8,3.8,0,0,1,97,167.5Z"/><path class="cls-1" d="M108.2,161.9a3.1,3.1,0,0,1-2-.7l-22.5-15a3.7,3.7,0,0,1-1.1-5.2,3.8,3.8,0,0,1,5.2-1l22.5,15a3.8,3.8,0,0,1,1.1,5.2A3.9,3.9,0,0,1,108.2,161.9Z"/><path class="cls-1" d="M85.8,161.9a3.9,3.9,0,0,1-3.2-1.7,3.8,3.8,0,0,1,1.1-5.2l22.5-15a3.8,3.8,0,0,1,5.2,1,3.7,3.7,0,0,1-1.1,5.2l-22.5,15A3.1,3.1,0,0,1,85.8,161.9Z"/></svg>