<svg id="Layer_1" data-name="Layer 1" xmlns="http://www.w3.org/2000/svg" viewBox="0 0 200 200"><defs><style>.cls-1{fill:#1d1d1b;}</style></defs><title>0</title><path class="cls-1" d="M134.5,47.5H25.8a3.8,3.8,0,1,1,0-7.5H134.5a3.8,3.8,0,0,1,0,7.5Z"/><path class="cls-1" d="M190.8,47.5H149.5a3.8,3.8,0,0,1,0-7.5h41.3a3.8,3.8,0,0,1,0,7.5Z"/><path class="cls-1" d="M85.8,70H18.2a3.8,3.8,0,0,1,0-7.5H85.8a3.8,3.8,0,0,1,0,7.5Z"/><path class="cls-1" d="M183.2,70H100.8a3.8,3.8,0,1,1,0-7.5h82.4a3.8,3.8,0,1,1,0,7.5Z"/><path class="cls-1" d="M175.8,92.5H10.8a3.8,3.8,0,1,1,0-7.5h165a3.8,3.8,0,0,1,0,7.5Z"/><path class="cls-1" d="M190.8,137.5H25.8a3.8,3.8,0,1,1,0-7.5h165a3.8,3.8,0,0,1,0,7.5Z"/><path class="cls-1" d="M63.2,115h-45a3.8,3.8,0,0,1,0-7.5h45a3.8,3.8,0,1,1,0,7.5Z"/><path class="cls-1" d="M183.2,115H78.2a3.8,3.8,0,0,1,0-7.5h105a3.8,3.8,0,1,1,0,7.5Z"/><path class="cls-1" d="M112,160H18.2a3.8,3.8,0,0,1,0-7.5H112a3.8,3.8,0,1,1,0,7.5Z"/><path class="cls-1" d="M183.2,160H127a3.8,3.8,0,1,1,0-7.5h56.2a3.8,3.8,0,1,1,0,7.5Z"/></svg>